<svg width="64" height="64" viewBox="0 0 64 64" xmlns="http://www.w3.org/2000/svg">
  <defs>
    <filter id="whiteShadow">
      <feDropShadow dx="0" dy="1" stdDeviation="2" flood-color="#000000" flood-opacity="0.3"/>
    </filter>
  </defs>

  <!-- Minimalist white dollar sign with two vertical lines -->
  <g transform="translate(32 32)" filter="url(#whiteShadow)">
    <!-- Custom path approximation of Times New Roman Bold $ glyph -->
    <path d="M11.79845 -22 12.139535 -7.984496H10.868217Q9.968992 -13.255814 6.449612 -16.465116Q2.930233 -19.674419 -1.162791 -19.674419Q-4.325581 -19.674419 -6.170543 -17.984496Q-8.015504 -16.294574 -8.015504 -14.093023Q-8.015504 -12.697674 -7.364341 -11.612403Q-6.465116 -10.155039 -4.48062 -8.728682Q-3.023256 -7.705426 2.248062 -5.100775Q9.627907 -1.472868 12.20155 1.751938Q14.744186 4.976744 14.744186 9.131783Q14.744186 14.403101 10.635659 18.20155Q6.527132 22 0.20155 22Q-1.782946 22 -3.550388 21.596899Q-5.317829 21.193798 -7.984496 20.077519Q-9.472868 19.457364 -10.434109 19.457364Q-11.24031 19.457364 -12.139535 20.077519Q-13.03876 20.697674 -13.596899 21.968992H-14.744186V6.093023H-13.596899Q-12.232558 12.790698 -8.341085 16.310078Q-4.449612 19.829457 0.046512 19.829457Q3.51938 19.829457 5.581395 17.937984Q7.643411 16.046512 7.643411 13.534884Q7.643411 12.046512 6.852713 10.651163Q6.062016 9.255814 4.449612 8Q2.837209 6.744186 -1.255814 4.728682Q-6.992248 1.906977 -9.503876 -0.077519Q-12.015504 -2.062016 -13.364341 -4.511628Q-14.713178 -6.96124 -14.713178 -9.906977Q-14.713178 -14.930233 -11.023256 -18.465116Q-7.333333 -22 -1.72093 -22Q0.325581 -22 2.248062 -21.503876Q3.705426 -21.131783 5.79845 -20.124031Q7.891473 -19.116279 8.728682 -19.116279Q9.534884 -19.116279 10 -19.612403Q10.465116 -20.108527 10.868217 -22Z"
          fill="#FFFFFF"/>

    <!-- Two parallel vertical lines -->
    <path d="M-4 -26V26" stroke="#FFFFFF" stroke-width="2" stroke-linecap="round" fill="none"/>
    <path d="M4 -26V26" stroke="#FFFFFF" stroke-width="2" stroke-linecap="round" fill="none"/>
  </g>
</svg>
